<?xml version="1.0" encoding="UTF-8" standalone="no"?>
<!-- Created with Inkscape (http://www.inkscape.org/) -->

<svg
   version="1.1"
   id="svg1"
   width="2048"
   height="2048"
   viewBox="0 0 2048 2048"
   xmlns="http://www.w3.org/2000/svg"
   xmlns:svg="http://www.w3.org/2000/svg">
  <defs
     id="defs1" />
  <g
     id="g1">
    <path
       id="path1"
       style="fill:#6C47FF"
       d="m 1028.8965,537.00391 c -11.314,-0.23283 -22.7015,0.50518 -32.72658,2.24609 -8.89275,1.54427 -18.11267,3.86865 -21.52539,5.42578 -1.1013,0.50248 -4.70589,1.88047 -8.00976,3.0625 -15.44812,5.52686 -35.3146,16.98325 -48.55665,28.00195 -26.57673,22.11447 -45.90295,47.12903 -61.92968,80.15821 l -8.07813,16.64648 -10.26367,7.79102 c -10.13081,7.68796 -13.01499,10.15018 -23.40625,19.98633 -11.52614,10.91041 -25.95625,29.60245 -31.83398,41.23828 -6.85152,13.56359 -13.15386,33.66778 -14.2793,45.54492 -0.32972,3.47965 -0.74437,7.22683 -0.91992,8.32812 -0.17555,1.1013 -0.35168,3.67843 -0.39258,5.72657 -0.0696,3.48611 -0.54841,4.04412 -7.50195,8.73632 -23.91895,16.14035 -41.4329,36.44721 -53.08789,61.5586 -5.03137,10.84039 -7.67029,19.1226 -9.91407,31.10351 -2.33617,12.47421 -2.59248,15.15977 -2.71875,28.58985 -0.22968,24.428 7.53448,52.75815 19.64844,71.69536 1.89252,2.9584 3.44141,5.6828 3.44141,6.0546 0,0.3718 3.37796,5.0634 7.50781,10.4258 4.12984,5.3624 7.50977,10.3554 7.50977,11.0957 -10e-6,0.7403 -0.64209,2.262 -1.42579,3.3809 -2.3566,3.3645 -4.58203,13.7615 -4.58203,21.4062 0,22.3164 17.75114,45.6994 44.85352,59.086 19.93598,9.8469 37.17181,13.3 55.9414,11.207 5.95952,-0.6646 12.01962,-1.4683 13.46485,-1.7871 2.33286,-0.5145 3.61014,0.525 11.38867,9.2617 20.39086,22.9025 41.1563,39.1145 66.35156,51.8027 19.69479,9.9181 49.21022,18.4179 71.35938,20.5508 22.73516,2.1893 52.44086,0.3869 71.53316,-4.3398 52.2679,-12.9401 92.9963,-39.3466 125.7715,-81.5469 l 2.6211,-3.3769 9.8906,3.5097 c 16.3284,5.7942 24.0454,7.1227 37.4786,6.4473 43.1806,-2.1711 82.445,-30.8835 87.9941,-64.3457 1.6647,-10.0387 -0.3582,-22.7707 -4.5957,-28.9356 -2.053,-2.9868 -1.7409,-3.9216 3.2305,-9.707 15.1304,-17.6079 26.7411,-42.19061 31.1308,-65.91015 2.6561,-14.35241 2.4176,-41.04202 -0.498,-55.71289 -3.0202,-15.19719 -5.0716,-21.08833 -12.6719,-36.39454 -10.7201,-21.58931 -27.7687,-40.59982 -49.3301,-55.00976 l -9.2597,-6.18945 -0.02,-4.69141 c -0.028,-7.18938 -2.6794,-23.90979 -5.0312,-31.72461 -1.16,-3.85452 -2.5303,-8.41287 -3.0449,-10.12891 -1.5732,-5.24526 -12.1357,-25.49506 -17.4356,-33.42773 -6.5276,-9.77009 -29.1047,-32.3819 -43.0449,-43.11133 l -11.0059,-8.47265 -6.5254,-13 c -10.8346,-21.58913 -19.9032,-35.99365 -33.0918,-52.55665 -11.6621,-14.64596 -30.9539,-32.42104 -44.9941,-41.45703 -2.4779,-1.59474 -5.6583,-3.68008 -7.0684,-4.63476 -8.8542,-5.99416 -36.3757,-17.00045 -50.0683,-20.02344 -9.7264,-2.14736 -20.9653,-3.35116 -32.2793,-3.58398 z m -1.2637,12.21484 c 1.6927,0.16871 6.382,0.56618 10.4219,0.88281 27.7969,2.17859 55.994,12.46251 76.8887,28.04297 23.775,17.72814 35.6131,30.06468 51.3964,53.5625 21.7907,32.44151 35.9449,72.27987 43.586,122.67774 1.012,6.67494 1.7011,31.54031 0.875,31.57421 -4.5322,0.18579 -14.6057,1.35017 -22.4063,2.5918 -29.1695,4.64294 -54.2886,17.73044 -76.7265,39.97461 -13.0199,12.90744 -23.8634,28.52217 -30.209,43.49805 l -4.0313,9.51172 -23.1093,0.26757 -23.1075,0.26954 -0.1093,-4.77344 c -0.172,-7.6373 -0.1814,-13.43852 -0.031,-18.54102 l 0.1406,-4.75586 h 19.8321 c 21.6464,0 23.4687,-0.42134 23.4687,-5.42383 0,-5.71503 -1.3981,-6.08779 -22.7344,-6.09179 -10.6733,-0.002 -19.7315,-0.32915 -20.1289,-0.72656 -0.3974,-0.39741 -0.6979,-7.60456 -0.6679,-16.01563 0.061,-17.15767 -0.6905,-19.79883 -5.6446,-19.79883 -5.4465,0 -6.0592,1.93427 -6.3632,20.07422 l -0.2774,16.46875 -19.8535,0.19531 c -21.40097,0.20942 -22.69532,0.51536 -22.69532,5.37696 0,5.36818 2.29043,5.9414 23.75,5.9414 h 19.29882 v 14.01758 14.01563 h -22.84569 -22.84766 l -4.38086,-9.76172 c -8.47289,-18.87609 -17.97432,-32.22518 -33.78711,-47.46875 -21.67509,-20.89484 -51.20318,-34.70088 -79.83007,-37.32422 -3.85453,-0.35322 -9.21446,-0.89984 -11.91211,-1.21485 l -4.90625,-0.57226 0.61328,-13.15039 c 0.54879,-11.77248 4.16132,-43.02057 5.16015,-44.63672 0.216,-0.3495 2.19521,-7.4021 4.39844,-15.67187 9.7966,-36.77146 26.83312,-71.80638 46.90625,-96.46485 27.83473,-34.19306 61.48662,-55.72715 98.63281,-63.11328 11.04822,-2.19683 28.04732,-3.95469 33.23632,-3.4375 z m 100.7285,109.01367 c -4.8931,-0.0246 -9.845,0.73076 -13.123,2.27539 -5.4327,2.55988 -12.3449,9.74742 -15,15.59571 -2.1811,4.80406 -2.6018,13.27646 -0.6973,14.04492 2.3737,0.95781 6.3795,0.65817 7.9043,-0.58985 0.8409,-0.6883 2.1032,-3.27669 2.8067,-5.75195 1.6305,-5.73696 8.0973,-12.35112 13.7246,-14.03711 5.8269,-1.74579 10.394,-0.58122 15.5586,3.96485 3.9158,3.44675 5.5674,6.19745 8.9003,14.82421 0.6963,1.8021 1.6507,2.25196 4.7735,2.25196 4.7833,0 6.046,-1.39917 5.5996,-6.20899 -0.8413,-9.06262 -8.2222,-19.06949 -17.6738,-23.96289 -3.045,-1.57648 -7.8803,-2.3816 -12.7735,-2.40625 z m -206.77927,0.041 c -7.98249,-3.6e-4 -9.53417,0.30725 -13.59961,2.69726 -5.35881,3.15038 -11.04242,9.14669 -13.76953,14.52735 -2.63992,5.2086 -3.68484,11.98032 -2.13672,13.8457 1.2718,1.53241 6.65224,1.97024 8.61914,0.70117 0.62701,-0.40455 1.60088,-2.41182 2.16407,-4.46094 1.96549,-7.15118 8.19654,-13.98831 14.55468,-15.9707 8.68184,-2.7069 18.38137,3.38324 22.30274,14.00195 2.35197,6.36894 3.13242,7.19749 6.76562,7.17969 5.18756,-0.0254 6.00759,-1.11409 5.3711,-7.14453 -0.69529,-6.58753 -4.5518,-13.69024 -9.9336,-18.29687 -6.88585,-5.89402 -10.29345,-7.07962 -20.33789,-7.08008 z m -81.48437,35.31445 c 0.031,-5.5e-4 0.0536,0.006 0.0684,0.0215 0.37861,0.38758 -1.32377,8.81492 -3.78321,18.72656 -5.23081,21.08039 -9.02613,45.21842 -9.73437,61.90234 -0.2765,6.51365 -0.65593,11.98981 -0.8418,12.16992 -0.18588,0.18012 -2.81519,0.62786 -5.84375,0.99414 -9.65246,1.16741 -20.28656,3.57415 -28.5332,6.45899 -4.40517,1.54102 -8.82357,3.14738 -9.81836,3.56836 -1.65979,0.70241 -1.79279,0.15634 -1.59961,-6.62305 0.245,-8.59743 3.4997,-22.62788 7.40234,-31.91602 7.32201,-17.42614 22.41557,-38.04646 39.92969,-54.55078 6.41295,-6.04319 11.99192,-10.73833 12.75391,-10.75195 z m 370.90824,0.57813 c 2.6818,-0.10096 24.3434,21.40432 33.1191,32.94531 5.8749,7.72607 17.3555,27.72317 17.3555,30.23047 0,0.27102 1.088,2.8714 2.4179,5.77734 2.3169,5.06281 6.6206,25.31375 6.6016,31.0625 -0.011,3.31769 -1.4014,3.40974 -8.5195,0.55859 -7.734,-3.0979 -22.3026,-6.74334 -29.8164,-7.46093 -3.7342,-0.35662 -6.9729,-0.94554 -7.1973,-1.3086 -0.2244,-0.36306 -0.6719,-4.69018 -0.9941,-9.61523 -1.3113,-20.04297 -3.514,-35.86708 -7.6329,-54.83203 -1.0974,-5.0529 -2.2178,-10.31285 -2.4902,-11.68946 -0.414,-2.09219 -1.6642,-6.41817 -3.9902,-13.80468 -0.2233,-0.70915 0.2415,-1.53802 1.0332,-1.8418 0.033,-0.0126 0.071,-0.0199 0.1133,-0.0215 z m -247.93559,31.68554 c -3.10608,0 -5.94726,2.77902 -5.94726,5.81641 0,7.41184 27.61397,23.08773 48.55665,27.56445 14.1028,3.01463 37.2181,1.51404 51.0605,-3.31445 12.9933,-4.53237 31.6503,-16.15506 34.5098,-21.49805 1.5232,-2.846 1.0193,-6.5566 -1.0664,-7.86328 -2.5264,-1.58272 -5.864,-0.17309 -13.8125,5.83203 -9.9942,7.55076 -18.8216,11.88049 -28.6406,14.04492 -29.3168,6.46234 -56.58369,0.57889 -77.7305,-16.77148 -2.55433,-2.09575 -5.67285,-3.81055 -6.92969,-3.81055 z M 841.4668,798.44922 c 18.30687,0.44139 35.89157,5.0674 54.08398,14.0332 28.72651,14.15734 48.48958,34.54653 61.83594,63.79492 8.22662,18.02855 11.01728,31.24661 11.15234,52.8125 0.16275,25.98678 -2.78597,38.9036 -13.95898,61.15039 -6.42158,12.78617 -12.34652,21.02467 -22.86719,31.79097 -18.13116,18.5548 -41.67516,32.0515 -66.69727,38.2344 -4.68048,1.1565 -13.24164,2.3425 -19.02343,2.6367 l -10.51172,0.5352 -8.00977,-12.2207 c -9.5797,-14.6173 -17.73881,-22.6616 -29.57812,-29.1582 -10.66671,-5.8531 -16.78024,-7.3208 -30.03711,-7.2129 -9.49558,0.077 -11.2605,0.3953 -17.52149,3.1543 l -6.96093,3.0684 -3.00391,-2.2793 c -7.81314,-5.9295 -22.03862,-30.03468 -27.44336,-46.50199 -5.29593,-16.13579 -6.5246,-24.03373 -6.5625,-42.19531 -0.0281,-13.46009 0.37565,-18.37362 2.18164,-26.53125 6.03295,-27.25074 17.4671,-48.04398 36.79883,-66.91993 17.63181,-17.2161 39.29321,-29.24946 62.10352,-34.5 11.79099,-2.71407 23.0354,-3.95624 34.01953,-3.6914 z m 366.7031,0.16992 c 24.5426,-1.07806 47.9459,4.65657 69.8301,17.15039 13.9978,7.99143 22.6938,15.08663 33.2207,27.10547 22.7983,26.02951 32.6609,52.50683 32.6719,87.7168 0.01,28.80441 -6.6863,50.53586 -23.1504,75.1367 -3.2993,4.9298 -7.4343,10.2394 -9.1895,11.8008 l -3.1914,2.8398 -4.8535,-2.0879 c -2.6695,-1.1483 -5.6727,-2.0935 -6.6719,-2.1035 -0.9992,-0.01 -2.4601,-0.4232 -3.248,-0.9218 -1.1357,-0.7187 -0.2532,-2.1821 4.2598,-7.0567 12.3603,-13.35063 21.1732,-29.3271 25.5937,-46.39647 4.0251,-15.54274 4.4275,-19.32514 3.8184,-36.01171 -0.6443,-17.65214 -2.5996,-27.08184 -8.625,-41.59375 -3.6905,-8.88855 -6.5599,-13.60536 -15.2051,-24.99415 -21.2665,-28.01562 -54.2391,-44.25009 -89.8652,-44.24609 -28.1438,0.003 -52.9159,8.88814 -73.7266,26.44141 -7.5653,6.38111 -7.0348,5.84878 -13.7168,13.76367 -11.5501,13.68129 -20.0038,29.9158 -24.4219,46.89648 -2.4589,9.45085 -2.741,12.28179 -2.789,28.03321 -0.045,14.94794 0.2772,18.82734 2.1914,26.42578 10.4679,41.55371 38.8665,72.27062 79.25,85.71872 8.9637,2.985 24.7867,4.9356 35.8535,4.4199 l 9.2871,-0.4316 -1.5195,2.7539 c -0.8357,1.5154 -3.0182,5.2332 -4.8497,8.2617 l -3.33,5.5078 -7.9434,0.1778 c -29.0476,0.6544 -65.6154,-16.388 -90.2715,-42.0703 -23.566,-24.54688 -36.7233,-58.24914 -36.2461,-92.84378 0.3175,-23.01886 8.1771,-49.1738 20.67,-68.78711 18.2932,-28.71962 48.4072,-49.93808 81.2597,-57.25586 8.42,-1.87553 16.7274,-2.99026 24.9082,-3.34961 z m 0.336,27.55859 c 3.3648,-0.0913 6.8402,-0.0459 10.4238,0.13672 15.0412,0.7664 24.9469,3.27009 38.4629,9.72657 34.9726,16.70604 56.7744,48.9332 59.7734,88.35351 0.7112,9.34898 -1.5016,26.95686 -4.6133,36.69727 -4.8109,15.05919 -16.9574,35.29002 -26.1855,43.6152 -6.8319,6.1635 -13.2257,10.4844 -15.5156,10.4844 -6.1097,0 -19.9081,6.2206 -29.1231,13.1289 -2.8797,2.1588 -6.4843,4.4112 -8.0097,5.0059 -7.5277,2.9347 -33.3935,2.5777 -45.8243,-0.6328 -14.1359,-3.6509 -34.1209,-14.552 -44.9316,-24.5098 -11.6882,-10.76612 -24.2074,-30.6304 -28.625,-45.41993 -4.0248,-13.47487 -4.5127,-17.13271 -4.4297,-33.17187 0.073,-14.11993 0.4036,-17.19715 2.7852,-25.95899 9.4831,-34.88727 34.2218,-61.16276 68.6933,-72.96093 7.9373,-2.71662 17.0245,-4.22035 27.1192,-4.49415 z m 8.3418,17.58789 c -2.3531,0.0349 -4.0437,0.26565 -4.4473,0.75196 -0.5322,0.64122 -1.2201,3.60012 -1.5293,6.57617 -0.8848,8.51479 -0.8355,8.4563 -8.0899,9.79297 -13.0807,2.41022 -25.8943,11.34621 -31.2089,21.76367 -5.3661,10.51832 -6.0695,27.06518 -1.545,36.36328 3.5028,7.19837 13.1378,16.72403 21.2129,20.97071 l 6.3496,3.33789 -0.5664,5.65039 c -0.6217,6.2026 -1.6267,11.15429 -2.2636,11.15429 -1.0217,0 -14.3306,-7.20603 -18.3789,-9.95117 -6.2332,-4.22668 -8.2239,-4.00761 -10.8243,1.19141 -2.9958,5.9894 -11.2011,25.56512 -11.2011,26.72265 0,1.98988 23.3403,15.66827 30.0351,17.60157 4.5299,1.30814 4.6925,1.82384 3.4063,10.69919 -0.6616,4.5656 -1.0994,8.4125 -0.9727,8.5489 0.1266,0.1364 5.1496,1.1226 11.1621,2.1933 6.0125,1.0707 12.5102,1.8617 14.4375,1.7559 l 3.5039,-0.1934 1.2012,-7.9101 c 0.661,-4.3504 1.5618,-8.2275 2.002,-8.6172 0.4403,-0.3897 3.7294,-1.2896 7.3086,-1.9981 3.5792,-0.70845 9.7871,-2.86197 13.7949,-4.78709 25.6242,-12.30808 32.1909,-46.96926 12.6094,-66.55078 -2.4218,-2.42179 -8.2419,-6.55793 -12.9336,-9.19141 -6.2626,-3.51527 -8.4093,-5.22449 -8.0782,-6.42968 0.248,-0.90286 0.7446,-4.22527 1.1035,-7.38282 0.359,-3.15752 0.9976,-5.95377 1.42,-6.21484 0.4225,-0.26107 3.8828,1.36318 7.6894,3.60938 3.8065,2.2462 8.4044,4.71975 10.2168,5.49609 l 3.2949,1.41016 2.586,-5.78711 c 3.8676,-8.65771 8.3437,-22.31114 8.3437,-25.44922 0,-2.14951 -0.9973,-3.45348 -4.4629,-5.83789 -4.6073,-3.16988 -16.9504,-9.38667 -20.4609,-10.30469 -1.8092,-0.47313 -1.9459,-1.15787 -1.5039,-7.47852 0.3728,-5.3314 0.144,-7.24186 -0.9766,-8.17187 -2.1498,-1.78424 -15.1753,-3.43876 -22.2343,-3.33399 z m 5.5664,8.5586 c 1.1528,0.0361 2.6318,0.19164 4.5254,0.43164 l 6.0078,0.76172 v 7.29297 7.29297 l 7.0215,2.375 c 8.4669,2.86578 18.5078,8.46393 18.5078,10.31836 0,2.42943 -5.3455,19.25976 -6.1172,19.25976 -0.4148,0 -4.9187,-2.02795 -10.0098,-4.50586 -5.0911,-2.47791 -10.5078,-4.50586 -12.0371,-4.50586 -3.0458,0 -2.7471,-0.83927 -4.8125,13.51758 -2.1221,14.75032 -2.5411,13.47006 5.9062,18.00977 9.855,5.2962 19.1333,13.99719 22.1622,20.7832 3.5217,7.89019 3.3982,20.24233 -0.2774,27.78515 -2.8156,5.77803 -9.8701,13.24489 -15.8965,16.82813 -4.6166,2.74504 -14.1128,5.19727 -20.1308,5.19727 -4.7121,0 -4.7542,0.0296 -5.3653,3.7539 -0.3387,2.06493 -1.0679,6.11888 -1.6191,9.00978 -1.1228,5.8892 -1.5924,6.0773 -9.8711,3.9258 l -4.5039,-1.1719 0.3125,-8.6387 0.3144,-8.6406 -8.1347,-2.62305 c -10.2941,-3.32038 -17.6024,-6.77809 -21.8633,-10.3457 l -3.3398,-2.79688 4.0859,-9.41992 c 2.2472,-5.18116 4.3012,-9.63317 4.5625,-9.89453 0.2614,-0.26135 3.3037,1.34899 6.7617,3.58008 10.795,6.96503 22.7721,11.15305 22.8301,7.98242 0.013,-0.68831 0.9025,-7.10918 1.9785,-14.26758 1.076,-7.1584 1.9675,-13.52303 1.9805,-14.14453 0.013,-0.6215 -1.3703,-1.70711 -3.0723,-2.41211 -4.8253,-1.99868 -15.031,-8.79368 -19.2656,-12.82617 -6.579,-6.26498 -8.125,-10.28243 -8.125,-21.17578 0,-7.58933 0.4299,-10.45807 2.1367,-14.19336 5.166,-11.30573 16.4801,-18.92295 31.3203,-21.08594 8.0475,-1.17294 8.0624,-1.17887 9.0469,-4.72266 0.5423,-1.95203 0.9902,-5.02905 0.9902,-6.83593 0.01,-3.03538 0.5317,-4.00673 3.9903,-3.89844 z m -422.05277,14.98633 c -11.71534,-0.31094 -24.38431,4.76159 -33.48438,13.66601 -6.48702,6.34755 -10.00349,12.64885 -12.36133,22.14649 -2.04404,8.23353 -2.04819,12.19367 -0.0215,21.26367 4.37247,19.56787 19.36846,39.28673 50.47656,66.37109 17.70314,15.41329 22.69111,19.54279 27.39063,22.67769 2.26656,1.5119 4.50115,2.752 4.96679,2.752 1.3234,0.01 6.28921,-3.6498 17.57813,-12.9453 59.66275,-49.12752 76.46955,-80.20383 60.40625,-111.69532 -13.61766,-26.69692 -51.09722,-31.78829 -72.64648,-9.86719 l -5.14454,5.23437 -6.02734,-5.77734 c -7.12631,-6.83331 -16.90029,-11.82109 -26.18359,-13.35938 -1.62155,-0.2687 -3.2756,-0.42237 -4.94922,-0.46679 z m 0.60547,11.76953 c 3.63561,0.13751 7.15808,0.76744 10.1875,1.91015 7.10875,2.68147 14.62132,9.32853 19.35742,17.125 1.98668,3.27043 4.03023,6.00152 4.54101,6.07032 0.51077,0.0688 1.49138,0.21138 2.17969,0.3164 1.61822,0.2469 5.75781,-3.40785 5.75781,-5.08398 0,-2.51084 12.1421,-14.29533 17.35352,-16.8418 10.01312,-4.89274 24.07974,-4.11471 33.53711,1.85547 12.34626,7.79385 17.78798,23.81347 13.5918,40.00977 -4.54783,17.55355 -16.93243,32.32718 -54.92774,65.52539 -7.6849,6.71465 -14.66942,12.1948 -15.51953,12.1758 -0.85011,-0.019 -5.16402,-3.28637 -9.58789,-7.25979 -4.42386,-3.97341 -10.25431,-9.02592 -12.95508,-11.22851 -8.30821,-6.77568 -30.56745,-28.7264 -35.02734,-34.54102 -11.54207,-15.04807 -15.31414,-25.27778 -14.33399,-38.87695 0.83527,-11.58888 8.31647,-22.86008 18.4668,-27.82617 4.94419,-2.41897 11.31956,-3.55926 17.37891,-3.33008 z m 409.7363,10.96484 c -4.3595,0 -7.4747,3.85127 -8.0625,9.96875 -0.416,4.32959 -0.1104,5.51737 2.1973,8.54297 4.2567,5.58078 4.7209,5.09001 6.5996,-6.99805 0.5991,-3.85453 1.3399,-8.02276 1.6465,-9.26171 0.4829,-1.95092 0.1632,-2.25196 -2.3809,-2.25196 z m -233.55662,3.0332 17.77149,0.40235 c 9.77403,0.22098 19.23583,0.43827 21.02543,0.48437 l 3.2519,0.084 v 14.01758 14.01562 h -18.9629 c -10.4298,0 -19.16277,-0.33702 -19.40818,-0.75 -0.24542,-0.41299 -0.75463,-3.90524 -1.13086,-7.75976 -0.37623,-3.85452 -1.09311,-8.81109 -1.5918,-11.01368 -0.49869,-2.20258 -0.91618,-5.23616 -0.92968,-6.74218 z m 96.17192,1.00782 c 0.7851,0.48524 0.8427,1.30539 0.1816,2.58984 -1.0997,2.13658 -2.1198,8.1299 -2.875,16.89649 -0.2846,3.30388 -0.6947,6.5695 -0.9121,7.25781 -0.298,0.94349 -5.0844,1.25195 -19.4492,1.25195 h -19.0528 l -0.072,-5.75586 c -0.098,-7.95006 0.1671,-21.70422 0.4218,-21.95898 0.6111,-0.61108 40.7864,-0.88167 41.7579,-0.28125 z m -92.07621,40.00976 h 18.97661 18.9765 v 14.01758 c 0,13.84232 -0.027,14.01752 -2.2519,14.10352 -8.4418,0.32638 -18.79849,0.37239 -28.1641,0.12695 l -10.89453,-0.28516 0.66015,-4.7207 c 0.36313,-2.5962 0.89834,-7.42269 1.1875,-10.72656 0.28916,-3.30388 0.74675,-7.47212 1.01758,-9.26172 z m 49.96871,0 h 19.0215 c 14.5144,0 19.0379,0.29706 19.0899,1.25196 0.081,1.5037 0.537,5.36504 2.0136,17.09179 0.6119,4.85802 0.9127,9.03264 0.67,9.27539 -0.5815,0.58146 -22.0521,0.99406 -32.5352,0.625 l -8.2598,-0.29101 -0.1113,-6.96875 c -0.061,-3.83225 -0.1113,-7.86746 -0.1113,-8.96875 0,-1.10129 0.05,-4.25654 0.1113,-7.00977 z m 189.1153,11.60547 c -1.1038,-0.008 -1.3959,2.23236 -2.3946,11.42188 -0.3292,3.02856 -0.8603,7.1968 -1.1796,9.26172 -0.481,3.11075 -0.2852,3.7539 1.1445,3.7539 2.6917,0 7.2583,-3.0878 8.457,-5.71875 2.4925,-5.47048 -0.2676,-15.81832 -4.8769,-18.28515 -0.4696,-0.25132 -0.8414,-0.43142 -1.1504,-0.4336 z m -245.93948,28.44141 h 22.43359 22.43169 l -0.2774,13.76758 -0.2793,13.76564 -26.53124,0.2441 c -14.59213,0.1343 -27.13125,-0.1409 -27.86523,-0.6113 -1.05688,-0.6772 -0.6227,-2.28914 2.08594,-7.75196 1.88108,-3.7938 4.45066,-9.71471 5.71093,-13.15625 z m 56.82418,0 h 22.9141 22.916 l 0.6172,3.2539 c 0.3389,1.7896 2.6415,7.74545 5.1172,13.23438 2.4757,5.48892 4.5,10.33114 4.5,10.76174 0,0.9487 -54.4516,1.0639 -55.3984,0.1172 -0.3671,-0.3671 -0.6661,-6.67566 -0.6661,-14.01761 z m 162.6231,24.48633 c 0.069,-0.005 0.148,0.0886 0.2305,0.29297 0.2778,0.68831 0.2778,1.81562 0,2.50392 -0.2777,0.6883 -0.5059,0.1246 -0.5059,-1.252 0,-0.96792 0.1121,-1.53354 0.2754,-1.54489 z m -236.8965,14.88479 c 0.20108,0 0.40256,0.036 0.60938,0.092 1.14321,0.307 15.4835,0.5603 31.86523,0.5703 l 29.78319,0.016 v 14.0156 14.0157 h -20.40038 c -22.54975,0 -23.04978,0.1382 -22.4668,6.1699 0.51206,5.2979 2.82985,5.8869 22.84376,5.7929 9.63632,-0.046 18.14962,-0.053 18.91792,-0.016 2.192,0.1058 0.8645,27.5296 -1.748,36.1094 -3.1317,10.2844 -6.7895,18.7633 -10.5234,24.3887 -13.04648,19.6552 -30.30035,31.4717 -52.89457,36.2246 -7.35188,1.5465 -23.6559,2.5356 -30.3418,1.8418 -19.12829,-1.9849 -38.58033,-9.2009 -51.82617,-19.2266 -6.51969,-4.9347 -14.75195,-13.0052 -14.75195,-14.4629 0,-0.4296 1.11049,-1.203 2.46679,-1.7187 5.28479,-2.0093 15.71416,-9.4091 20.03321,-14.2129 8.75118,-9.7334 13.44018,-24.3782 9.17187,-28.6465 -0.85577,-0.8558 -3.99231,-1.7391 -7.0918,-1.9961 -6.16222,-0.511 -7.21214,-1.6915 -2.4375,-2.7402 4.62987,-1.0168 26.15904,-11.5352 36.13477,-17.6543 12.38744,-7.5983 28.582,-22.2009 36.82227,-33.2012 3.04072,-4.0592 4.42642,-5.3898 5.83398,-5.3613 z m 137.8477,0.1758 3.5039,3.9648 c 13.802,15.6193 26.1723,26.8216 37.9902,34.4004 6.558,4.2057 28.9975,15.3994 34.5957,17.2578 l 4.0039,1.3281 -4.2461,0.7559 c -5.1394,0.9137 -9.1571,3.653 -9.3437,6.3691 -0.5851,8.5177 3.0689,16.6706 11.0507,24.6524 3.3233,3.3233 6.043,6.4306 6.043,6.9043 0,1.5165 -10.0881,14.2533 -17.4238,21.998 -22.6149,23.8757 -49.9785,41.3891 -81.4473,52.1289 -15.4015,5.2562 -20.3481,6.6121 -30.9043,8.4688 -2.1347,0.3755 -5.0081,0.8926 -6.3847,1.1504 -4.9846,0.9337 -47.74767,1.1692 -55.36137,0.3046 -19.54605,-2.2195 -41.65256,-8.7211 -61.38086,-18.0527 -10.95029,-5.1795 -21.91938,-11.7877 -21.03516,-12.6719 0.30251,-0.3025 4.86328,0.019 10.13477,0.7168 9.04164,1.1967 31.37084,0.9418 37.53711,-0.4297 1.37661,-0.3062 4.87657,-0.9975 7.77734,-1.5351 12.23737,-2.2678 30.07186,-12.1386 41.64847,-23.0527 7.649,-7.2113 12.6264,-14.0392 17.8925,-24.5411 7.9312,-15.8167 10.5994,-27.1674 11.1172,-47.2871 0.1592,-6.1854 0.5054,-11.4624 0.7696,-11.7265 0.2641,-0.2642 8.8376,-0.5337 19.0507,-0.5977 21.1497,-0.1335 23.21,-0.6498 23.7168,-5.9433 0.5463,-5.7048 -0.6906,-6.0293 -23.0468,-6.0293 h -19.8321 v -13.9883 -13.9883 l 31.7871,-0.2793 z m -326.49418,12.2421 c 8.70815,-0.063 18.26051,2.2292 25.5039,6.5684 11.87423,7.1133 17.84472,14.2429 32.76172,39.123 9.6958,16.1716 15.35774,23.1096 19.75977,24.211 4.02611,1.0073 7.61096,-0.9298 8.32421,-4.4961 0.53893,-2.6945 1.11441,-3.0654 6.23633,-4.0313 3.10255,-0.5851 8.0056,-1.6722 10.89649,-2.416 5.80772,-1.494 6.46623,-0.8699 3.60156,3.4141 -6.82197,10.2019 -20.694,19.2663 -35.92578,23.4746 -7.04118,1.9454 -30.8263,2.902 -37.43945,1.5059 -12.05249,-2.5444 -24.69419,-7.9822 -36.14258,-15.545 -17.46313,-11.5363 -27.96099,-28.4334 -27.95899,-45.0039 0.001,-11.7287 4.80947,-18.8309 16.30078,-24.082 3.9371,-1.7991 8.85715,-2.6847 14.08204,-2.7227 z m 510.53128,0.4864 c 13.085,-0.5819 19.4962,1.0938 25.9707,6.7929 9.8764,8.6936 10.9742,23.6418 2.9414,40.0293 -9.35,19.0749 -35.7005,36.3893 -60.9317,40.0371 -6.6142,0.9562 -20.2215,1.1585 -25.3691,0.377 -15.036,-2.2827 -30.611,-9.2929 -40.041,-18.0234 -5.0593,-4.684 -9.0485,-10.6585 -7.8906,-11.8164 0.3471,-0.3471 6.9956,1.2262 19.2304,4.5507 2.5123,0.6826 3.6602,1.4997 3.3281,2.3653 -0.9814,2.5575 2.2498,5.5566 5.9864,5.5566 5.7611,0 13.0534,-8.3333 25.2871,-28.8984 13.1211,-22.0569 20.5583,-30.3057 32.7988,-36.3711 7.808,-3.869 9.0379,-4.1703 18.6895,-4.5996 z m -410.9805,46.33 c 7e-4,9e-4 0.003,0.01 0.004,0.01 h 0.002 c 4.2e-4,9e-4 0.002,0 0.002,0.01 2.4e-4,10e-4 0.002,0 0.002,0.01 6e-5,0 3e-5,0 0,0.01 -0.0299,0.2622 -2.80334,1.3226 -6.34961,2.418 -5.90158,1.8228 -18.73879,2.9654 -17.31445,1.541 0.68778,-0.6877 23.16485,-4.4739 23.6543,-3.9844 z m 316.7461,0.5567 c 1.8062,0.021 5.5349,0.3976 11.2031,1.125 10.0653,1.2917 10.7381,1.5168 8.5938,2.873 -2.0871,1.3198 -4.4548,1.1192 -12.8985,-1.0918 -7.5801,-1.9849 -9.9087,-2.9409 -6.8984,-2.9062 z m -84.2969,201.7109 c -12.9465,0.464 -19.7821,2.2321 -30.9648,8.0078 -15.0738,7.7853 -25.921,19.805 -31.1563,34.5235 -3.1725,8.9193 -3.9406,28.1342 -1.4648,36.6504 3.1585,10.8651 10.8051,23.0683 18.9179,30.1914 7.3636,6.4653 21.0299,13.0844 32.1543,15.5742 4.8527,1.0861 24.9424,0.5691 31.7207,-0.8164 15.2891,-3.1251 30.5681,-13.3059 38.7012,-25.7891 6.9074,-10.6019 9.3598,-19.0928 9.8985,-34.2851 0.4252,-11.9911 0.2599,-13.6104 -2.0918,-20.5703 -3.7779,-11.1805 -7.1852,-16.6761 -15.2364,-24.5801 -13.2184,-12.977 -30.919,-19.6074 -50.4785,-18.9063 z m -441.81444,1.8809 c -16.9577,-0.1025 -31.7131,0.043 -32.78906,0.3242 -1.91361,0.5004 -1.95508,1.8263 -1.95508,60.7988 0,33.1581 0.25367,60.5427 0.56446,60.8535 0.31078,0.3108 6.50501,0.499 13.76562,0.418 l 13.20117,-0.1484 0.27344,-17.7129 0.27344,-17.7129 11.86523,-0.3086 c 6.52629,-0.1697 12.61443,-0.1585 13.5293,0.023 0.91486,0.1819 6.88162,8.1775 13.25781,17.7696 11.34572,17.068 11.66964,17.4448 15.23047,17.5879 15.08715,0.606 20.06875,0.61 22.88476,0.023 l 3.22657,-0.6719 -9.70117,-14.5176 c -5.33568,-7.9844 -10.05299,-14.6661 -10.48438,-14.8496 -0.43139,-0.1836 -0.78516,-0.7557 -0.78516,-1.2714 0,-0.5157 -1.0843,-2.6556 -2.41015,-4.7559 l -2.41016,-3.8203 6.66406,-4.4453 c 3.6661,-2.445 6.55368,-4.997 6.41602,-5.6719 -0.13766,-0.6748 0.28311,-1.1143 0.93359,-0.9766 0.65047,0.1377 2.64103,-2.1492 4.42578,-5.082 5.96179,-9.7966 6.9142,-26.423 2.23047,-38.9414 -2.70883,-7.24 -10.74401,-15.903 -18.64257,-20.0996 -11.3495,-6.0302 -15.54842,-6.6068 -49.56446,-6.8125 z m 566.96094,0.051 c -30.5849,-0.323 -35.6325,-0.072 -32.9199,1.6465 0.7812,0.4946 0.896,0.8825 0.2636,0.8925 -0.8117,0.011 -1.1633,16.5615 -1.2753,60.1153 l -0.1543,60.0976 13.789,-0.2793 13.791,-0.2773 0.072,-16.5196 c 0.04,-9.0856 0.153,-17.0831 0.25,-17.7714 0.1311,-0.9257 3.4663,-1.252 12.8106,-1.252 12.6088,0 12.6383,0.01 16.0527,3.0039 1.8814,1.652 3.1669,3.0039 2.8555,3.0039 -0.5911,0 1.9028,4.0162 12.539,20.1875 l 6.3653,9.6758 14.8242,0.084 c 8.1534,0.045 14.8052,-0.2546 14.7812,-0.666 -0.1075,-1.8847 -17.8633,-26.7476 -18.9277,-26.5039 -0.6606,0.1513 -0.9256,-0.1705 -0.5879,-0.7168 0.3377,-0.5464 -0.981,-3.3117 -2.9297,-6.1446 -1.9487,-2.833 -3.543,-5.6932 -3.543,-6.3554 0,-0.6622 1.602,-1.9674 3.5586,-2.9004 1.9567,-0.9331 3.2844,-2.1366 2.9512,-2.6758 -0.3333,-0.5394 0.019,-0.7418 0.7813,-0.4492 1.8466,0.7086 8.9498,-7.0896 12.0527,-13.2305 1.3467,-2.6652 3.0047,-7.5329 3.6836,-10.8183 1.7758,-8.5951 -0.083,-24.3499 -3.2793,-27.795 -0.6737,-0.7262 -1.3562,-1.9274 -1.5156,-2.6679 -1.0002,-4.6457 -9.9766,-12.3718 -18.7325,-16.125 -10.9269,-4.6839 -15.5131,-5.2201 -47.5566,-5.5586 z m -352.91406,0.051 -0.25782,61.3516 -0.25781,61.3516 13.27344,-0.2793 13.27344,-0.2793 -0.33399,-35.6817 c -0.34073,-36.3808 0.0998,-40.9957 3.20313,-33.5683 0.78519,1.8792 2.93811,5.6285 4.78515,8.332 1.84704,2.7035 9.20497,14.7013 16.34961,26.6602 l 12.99024,21.7422 h 6.61328 6.61523 l 3.00196,-4.7559 c 8.97562,-14.2125 27.36914,-45.7658 27.36914,-46.9512 0,-1.2277 5.45219,-8.3629 6.39062,-8.3633 0.80323,-4e-4 1.11914,10.2281 1.11914,36.293 v 36.293 l 11.84766,0.3027 c 6.83984,0.1748 12.35444,-0.1163 13.04494,-0.6894 0.8988,-0.7457 1.1387,-11.0393 0.9648,-41.3516 -0.1273,-22.1971 -0.2533,-49.2699 -0.2793,-60.1621 l -0.049,-19.8047 -12.26367,0.2813 -12.26367,0.2812 -1.62891,3.2598 c -0.89561,1.7929 -4.85097,8.5507 -8.78906,15.0175 -3.93809,6.4668 -10.71242,17.6151 -15.05469,24.7735 -4.34227,7.1584 -10.47132,17.227 -13.61914,22.375 l -5.72266,9.3594 -2.37304,-2.5586 c -1.30471,-1.4071 -2.38233,-3.1412 -2.39454,-3.8536 -0.0122,-0.7123 -0.90171,-2.4201 -1.97851,-3.7968 -1.07681,-1.3766 -1.96827,-2.8654 -1.98047,-3.3086 -0.0122,-0.4432 -1.83599,-3.4779 -4.05273,-6.7422 -2.21674,-3.2643 -6.83433,-10.6375 -10.26172,-16.3867 -16.18538,-27.1496 -22.03294,-36.6268 -23.19336,-37.5899 -0.69255,-0.5748 -6.39609,-1.1577 -12.67383,-1.2968 z m -118.38867,0.3067 c -0.98282,0.3216 -1.25196,13.3744 -1.25196,60.8066 v 60.3965 l 2.75391,0.3184 c 1.51427,0.1743 23.13989,0.4188 48.05664,0.5449 l 45.30273,0.2305 v -10.9922 c 0,-9.7993 -0.86406,-13.3976 -2.33984,-9.7403 -0.30167,0.7477 -0.53678,0.5448 -0.58398,-0.5019 -0.0736,-1.631 -2.32599,-1.752 -32.61719,-1.752 -17.896,0 -32.57605,-0.337 -32.62305,-0.75 -0.49166,-4.323 -0.12431,-27.4069 0.44531,-27.9765 0.41287,-0.4129 13.21558,-0.7633 28.45118,-0.7793 l 27.70117,-0.029 0.26758,-3.5039 c 0.61435,-8.0299 0.58501,-11.7219 -0.10352,-12.836 -0.40127,-0.6492 -0.3273,-1.1797 0.16406,-1.1797 0.96714,0 1.27252,-2.9924 0.3086,-3.0234 -0.32121,-0.011 -13.04825,-0.1228 -28.28321,-0.25 -15.23496,-0.1272 -27.94735,-0.4781 -28.25,-0.7812 -0.30265,-0.303 -0.64171,-5.372 -0.75195,-11.2637 -0.12883,-6.885 -0.58647,-10.7185 -1.2832,-10.7285 -0.60653,-0.01 -0.50909,-0.3789 0.2207,-0.8418 0.71737,-0.455 1.16673,-1.4628 1,-2.2383 -0.29328,-1.3641 8.12611,-1.6242 60.82422,-1.8887 l 4.05859,-0.022 0.17383,-9.5097 c 0.12668,-6.9393 -0.15745,-9.5164 -1.05469,-9.5274 -0.79106,-0.01 -0.69451,-0.362 0.27149,-0.9863 1.10462,-0.7138 0.30995,-1.0151 -3.00391,-1.1387 -10.3029,-0.3843 -86.70245,-0.4332 -87.85351,-0.057 z M 1374.834,1277.5 c -14.4678,0 -14.9309,0.065 -15.9668,2.252 -0.5867,1.239 -2.2875,4.9558 -3.7793,8.2597 -11.1429,24.6793 -18.0327,39.8468 -20.2402,44.5528 -1.4206,3.0285 -4.0419,8.8857 -5.8243,13.0156 -8.8641,20.538 -11.6271,26.7467 -12.9668,29.1426 -0.804,1.437 -1.1729,2.9013 -0.8203,3.2539 0.3526,0.3526 0.1628,0.6406 -0.4218,0.6406 -0.8737,0 -3.2687,5.2649 -9.0274,19.8418 -0.4168,1.0552 1.8268,1.2706 11.1856,1.0703 16.3268,-0.3494 17.4856,-0.5882 18.248,-3.7559 1.047,-4.3506 8.4747,-20.5758 9.9648,-21.7675 1.81,-1.4475 56.9351,-1.346 58.3047,0.1074 0.519,0.5506 3.2956,6.5202 6.1719,13.2656 l 5.2305,12.2637 h 14.4004 c 7.9205,0 14.4023,-0.3333 14.4023,-0.7403 0,-0.4069 -4.8971,-11.7825 -10.8808,-25.2793 -5.9836,-13.4969 -13.6906,-30.9599 -17.127,-38.8066 -3.4365,-7.8467 -6.5981,-14.2656 -7.0254,-14.2656 -0.4273,0 -1.0061,-1.0149 -1.2871,-2.2539 -0.577,-2.5444 -5.7106,-14.5643 -11.0098,-25.7793 -1.9514,-4.1299 -4.2418,-9.1988 -5.0898,-11.2637 l -1.543,-3.7539 z m -271.8809,21.3203 c 9.8926,0.2737 19.556,3.9278 25.9375,10.877 8.7439,9.5217 11.8368,18.2116 11.2891,31.7148 -0.3956,9.7524 -2.2293,14.5185 -8.582,22.3145 -4.5715,5.6103 -8.1829,8.156 -14.7872,10.4257 -6.4473,2.2157 -18.4907,2.7566 -25.6074,1.1504 -6.2764,-1.4165 -14.647,-6.3719 -18.5019,-10.9531 -1.4115,-1.6775 -3.9729,-5.7987 -5.6914,-9.1582 -2.6437,-5.1679 -3.1907,-7.4956 -3.5489,-15.1191 -0.6543,-13.9267 3.0602,-23.6371 12.1797,-31.8477 7.2981,-6.5707 17.42,-9.678 27.3125,-9.4043 z m -451.18748,0.7051 h 17.0586 c 14.78313,0 17.55889,0.2544 20.78906,1.9023 11.32129,5.7757 15.5174,17.7885 10.04297,28.75 -2.64481,5.2957 -6.13815,8.0764 -12.58203,10.0157 -4.75663,1.4315 -33.33609,2.0193 -34.64258,0.7128 -0.36709,-0.367 -0.66602,-9.8269 -0.66602,-21.0234 z m 584.50198,0.022 c 14.0472,0.018 17.3388,0.3142 20.707,1.8593 8.0282,3.6828 12.5156,10.3658 12.5156,18.6426 0,8.8343 -4.1675,15.2078 -12.5156,19.1446 -4.6125,2.1752 -6.2788,2.3611 -21.2148,2.3711 -8.9155,0.01 -16.3896,-0.3273 -16.6094,-0.7403 -0.647,-1.2162 -0.7979,-37.4757 -0.1641,-39.4726 0.5306,-1.6718 1.9865,-1.8247 17.2813,-1.8047 z m 137.9258,4.0918 c 0.4875,-0.5162 6.7606,14.3319 20.1679,47.7324 0.4112,1.0244 -3.5696,1.2638 -19.5371,1.1758 -11.0291,-0.061 -20.282,-0.3406 -20.5625,-0.6211 -0.7392,-0.7392 1.0514,-5.6949 5.4649,-15.127 2.1307,-4.5535 3.873,-8.4821 3.873,-8.7304 0,-0.2484 1.0818,-2.8292 2.4024,-5.7364 1.3207,-2.9072 3.6208,-8.2137 5.1113,-11.7929 1.4905,-3.5792 2.8765,-6.6848 3.0801,-6.9004 z m -119.5332,132.2383 c -1.1965,-0.087 -2.4369,0.1009 -3.0957,0.5136 -2.0384,1.2771 -2.6064,4.9831 -1.0508,6.8574 1.6202,1.9523 6.5892,1.8601 7.3554,-0.1367 1.4234,-3.7092 0.6474,-6.3776 -2.0507,-7.0547 -0.3655,-0.092 -0.7594,-0.1507 -1.1582,-0.1796 z m -528.80864,0.1425 v 31.8692 31.8711 h 3.50391 3.50391 v -11.4629 c 0,-15.3879 1.21004,-20.6715 5.61718,-24.541 2.9985,-2.6328 4.23627,-3.0411 9.21289,-3.0411 10.99049,0 13.2168,3.6995 13.41211,22.293 0.17204,16.3786 0.25841,16.752 3.91211,16.752 h 2.88672 v -15.8067 c 0,-14.4185 -0.19715,-16.1935 -2.25195,-20.2148 -3.64332,-7.1301 -6.39509,-8.5313 -16.76367,-8.5313 -7.60886,0 -9.27816,0.3174 -11.89649,2.2539 -1.67517,1.2389 -3.29027,2.252 -3.58789,2.252 -0.29762,0 -0.54101,-5.3317 -0.54101,-11.8477 V 1436.02 h -3.50391 z m -32.96679,2.8164 c -3.72475,-0.048 -7.51802,0.3881 -10.8086,1.3653 -7.45967,2.2153 -13.10698,9.4849 -12.6289,16.2578 0.0486,0.6883 0.14409,2.2236 0.21289,3.4101 0.23706,4.0867 7.03916,9.1709 15.68164,11.7247 4.38495,1.2956 9.87463,3.0154 12.19922,3.8203 4.46008,1.5442 9.28906,6.3169 9.28906,9.1816 0,8.6014 -17.60669,11.4991 -31.47852,5.1797 -5.00736,-2.2811 -5.95833,-2.4737 -5.06445,-1.0274 0.34032,0.5506 0.14174,1 -0.44141,1 -1.7712,0 -1.18755,2.9143 0.95508,4.7657 1.10892,0.9583 4.14987,2.5411 6.75781,3.5175 7.02277,2.6296 21.39615,1.9027 27.39063,-1.3847 7.25159,-3.9768 10.05728,-13.2511 6.29297,-20.7969 -2.23991,-4.49 -4.39045,-5.5701 -17.25391,-8.6621 -12.07297,-2.902 -16.45585,-5.3962 -17.61719,-10.0234 -0.89186,-3.5534 1.28736,-7.4209 5.41407,-9.6133 4.87954,-2.5924 16.02097,-2.4978 21.93945,0.1875 2.40332,1.0904 4.46908,1.8663 4.61719,1.7344 h 0.002 0.002 c 0.11875,-0.1476 0.72579,-1.2492 1.34961,-2.4493 0.97077,-1.8676 0.7686,-2.4708 -1.40625,-4.1816 -3.17844,-2.5001 -9.19639,-3.9225 -15.40429,-4.002 z m 519.88863,0.4395 c -7.8403,0.069 -9.9619,0.4736 -14.7304,2.8066 -5.8842,2.8789 -12.3526,9.3645 -15.0879,15.1289 -2.5327,5.3371 -3.0545,14.3378 -1.2012,20.7129 2.8502,9.8042 11.7754,18.6802 20.9902,20.875 8.3579,1.9907 20.9169,0.484 28.4512,-3.414 3.4344,-1.7769 3.4782,-1.9291 3.4902,-12.1446 0.017,-13.9608 0.1405,-13.5156 -3.7402,-13.5156 -3.3663,0 -3.5088,0.1471 -3.5918,3.7539 -0.3948,17.1263 -0.01,15.5712 -4.418,17.7266 -6.0758,2.9682 -16.0216,2.6145 -21.8027,-0.7735 -9.2928,-5.4459 -13.4818,-13.2943 -12.2949,-23.039 1.3159,-10.8041 7.3608,-18.2126 16.9726,-20.8008 7.1533,-1.9262 16.73,-0.1154 22.8633,4.3242 1.4225,1.0297 2.0231,0.9633 3.3555,-0.3691 2.5097,-2.5097 0.9383,-5.2434 -4.8594,-8.4531 -4.7509,-2.6301 -6.0843,-2.8914 -14.3965,-2.8184 z m -272.67965,0.4141 0.041,29.4921 0.041,29.4903 7.22266,0.2949 c 3.97234,0.1614 13.19221,0.1557 20.48828,-0.012 12.37083,-0.284 13.26562,-0.4352 13.26562,-2.252 0,-1.1611 -0.70769,-1.9775 -1.75195,-2.0195 -1.4982,-0.06 -1.46222,-0.194 0.25,-0.9297 1.23375,-0.5302 -4.22122,-0.8886 -14.20898,-0.9316 -10.30995,-0.045 -16.44814,-0.4587 -16.86719,-1.1368 -0.9159,-1.4819 -1.41404,-16.4136 -0.5918,-17.7441 0.39659,-0.6417 6.4054,-1.365 14.66797,-1.7637 7.69786,-0.3714 14.12915,-0.7932 14.29102,-0.9394 0.16188,-0.1461 0.50635,-1.4355 0.76562,-2.8653 l 0.4707,-2.5996 -15.2832,-0.2773 -15.2832,-0.2773 -0.18164,-8.4883 c -0.10249,-4.7666 0.2801,-9.0473 0.87304,-9.7617 0.77437,-0.9332 5.37257,-1.2715 17.24024,-1.2715 h 16.18359 l 0.22852,-3.0039 0.22851,-3.0039 h -21.04492 z m 331.93355,14.9921 c -0.3648,0 -0.7759,0.025 -1.2636,0.025 -4.2327,0 -4.6626,-1.5196 7.0195,24.7793 l 9.0059,20.2735 h 3.2421 c 3.8253,0 4.6721,-0.8699 7.3145,-7.5118 1.0949,-2.7519 3.5687,-8.3818 5.4981,-12.5117 3.2742,-7.0085 7.7835,-17.4999 9.8144,-22.8359 0.8285,-2.1767 0.6698,-2.2962 -2.6894,-2.0039 -3.554,0.3093 -3.5927,0.3646 -8.586,12.3262 -7.5393,18.0603 -9.8108,22.7109 -10.918,22.3418 -0.5534,-0.1845 -3.8599,-6.8646 -7.3457,-14.8438 -8.2606,-18.9095 -8.5377,-20.0492 -11.0918,-20.0391 z m -469.09175,0.025 c -11.26919,0 -17.44461,4.1264 -20.91211,13.9727 -4.20812,11.9494 0.51542,23.2095 12.15039,28.9687 8.48897,4.202 20.09343,2.1344 26.54883,-4.7304 6.17286,-6.5643 7.38295,-18.8718 2.65039,-26.9473 -5.04469,-8.6081 -9.86274,-11.2637 -20.4375,-11.2637 z m 245.29495,0 v 22.5137 22.5156 l 3.2539,-0.2617 3.2539,-0.2637 0.2383,-12.9902 c 0.3554,-19.4296 1.7842,-22.6754 11.0234,-25.0195 4.1215,-1.0457 4.7694,-1.5589 4.8574,-3.8496 0.08,-2.0966 -0.361,-2.6446 -2.1308,-2.6446 -2.866,0 -8.8236,2.4876 -10.877,4.541 -2.0087,2.0087 -3.6133,1.0774 -3.6133,-2.0976 0,-2.0479 -0.485,-2.4434 -3.0019,-2.4434 z m 202.2363,0 v 21.9571 21.955 l 2.2539,0.3653 c 4.7706,0.7721 4.7559,0.8455 4.7559,-22.3574 v -21.92 h -3.5039 z m -238.1621,0 c -12.1017,0 -19.7812,3.3757 -16.834,7.4062 1.22294,1.6725 1.63205,1.6519 8.0508,-0.4218 10.6033,-3.4256 17.5946,-1.3227 19.7734,5.9492 2.0019,6.682 1.3942,7.0879 -10.625,7.0879 -15.00271,0 -19.50388,2.7726 -19.50388,12.0136 0,5.1629 1.76993,8.2618 6.37304,11.1524 4.42614,2.7794 14.87444,2.2648 19.39644,-0.9551 l 3.1993,-2.2773 2.1269,2.4453 c 1.1696,1.3452 2.8739,2.302 3.7871,2.125 0.9131,-0.1771 2.0436,-0.3565 2.5117,-0.3985 0.4675,-0.042 0.6928,-7.929 0.5,-17.5254 -0.3163,-15.7523 -0.5518,-17.7223 -2.4238,-20.2734 -3.3234,-4.529 -7.9623,-6.3281 -16.332,-6.3281 z m 95.5723,0.025 c -5.5893,-0.2077 -11.8399,0.7811 -14.5313,2.7715 -2.8283,2.0916 -5.8312,2.2487 -4.5898,0.2402 0.5164,-0.8357 -1.6138,-2.0657 -4.6133,-2.6641 -1.4643,-0.2921 -1.6502,1.8895 -1.8008,21.1934 -0.092,11.8351 0.066,21.8966 0.3516,22.3594 0.286,0.4629 1.9974,0.7829 3.8027,0.7109 l 3.2832,-0.1328 0.2422,-14.2774 c 0.2691,-15.892 1.1683,-18.9726 6.4805,-22.2031 4.9631,-3.0183 10.2603,-3.5169 14.0214,-1.3203 5.903,3.4475 6.794,6.337 7.0801,22.9531 l 0.2578,14.8946 3.8516,0.3183 3.8496,0.3184 -0.4492,-15.8379 c -0.4462,-15.723 -1.9965,-23.3438 -4.7481,-23.3438 -0.5788,0 -0.9384,-0.5487 -0.8007,-1.2187 0.1377,-0.67 -1.3268,-2.0434 -3.254,-3.0527 -1.964,-1.0285 -5.08,-1.5844 -8.4335,-1.709 z m -242.44927,0.031 c -1.68401,-0.07 -3.58822,-0.025 -5.79296,0.1153 -5.18138,0.3299 -6.96166,0.9272 -9.74024,3.2734 l -3.40039,2.8711 -0.3125,-3.1406 c -0.28482,-2.8641 -0.59449,-3.1201 -3.50391,-2.8848 l -3.19335,0.2578 -0.30469,29.3945 c -0.16806,16.167 -0.0578,30.0374 0.24414,30.8243 0.35883,0.9351 1.67726,1.3226 3.80859,1.1172 l 3.26172,-0.3145 -0.18555,-10.7617 c -0.10171,-5.9195 0.22297,-10.7637 0.72071,-10.7637 0.49774,0 2.76797,0.9724 5.04687,2.1602 5.16998,2.6948 12.51111,3.4626 17.57813,1.8379 9.55676,-3.0643 14.59221,-10.5385 14.50781,-21.5352 -0.0614,-7.9995 -2.43724,-13.808 -7.44531,-18.2051 -3.17646,-2.7889 -6.23702,-4.0347 -11.28907,-4.2461 z m 476.16997,0.096 c -9.2197,-0.4194 -13.6404,1.148 -17.4961,6.2032 -5.7509,7.5398 -7.0078,18.0097 -3.1563,26.2812 2.5007,5.3707 6.4761,8.8791 12.5039,11.0332 7.2715,2.5985 18.8146,1.1942 23.1153,-2.8125 2.3502,-2.1896 2.7008,-4.2866 0.58,-3.4726 -0.9701,0.3721 -1.2666,0.075 -0.8945,-0.8946 0.6946,-1.8098 0.3645,-1.8069 -3.3086,0.025 -7.0956,3.5398 -16.4891,2.9841 -21.5488,-1.2734 -3.0216,-2.5425 -6.4867,-8.8982 -5.4278,-9.9571 0.2899,-0.29 8.6528,-0.457 18.5821,-0.373 l 18.0527,0.1523 v -4.0859 c 0,-6.1534 -4.3723,-14.5255 -9.2832,-17.7754 -3.3519,-2.2183 -5.457,-2.7659 -11.7187,-3.0508 z m -1.4082,5.3282 c 3.0641,-0.027 6.0983,0.665 8.0058,2.0878 3.7595,2.8042 6.3083,6.4379 6.6289,9.4493 l 0.2656,2.5039 -14.2871,0.2773 c -12.2746,0.2387 -14.3723,0.054 -14.8945,-1.3066 -0.8467,-2.2063 2.5685,-8.248 6.0918,-10.7774 2.031,-1.458 5.1253,-2.2069 8.1895,-2.2343 z m -477.96489,0.4277 c 5.27085,0.1592 10.38664,2.977 12.83789,8.3769 3.3619,7.4059 2.08268,15.6172 -3.18945,20.4707 -3.66585,3.3748 -9.7478,5.1933 -13.36524,3.9961 -10.90761,-3.6099 -15.69072,-15.639 -10.04687,-25.2695 3.06683,-5.2331 8.49282,-7.7334 13.76367,-7.5742 z m -58.67188,0.2422 c 8.92385,-0.1202 14.6085,5.5389 15.21094,15.3301 0.313,5.0871 -0.003,6.6053 -1.99609,9.539 -1.30348,1.9189 -4.15939,4.502 -6.3457,5.7403 -10.69586,6.058 -22.44022,-1.3789 -22.47852,-14.2344 -0.028,-9.4077 5.07834,-15.437 13.7832,-16.2735 0.62317,-0.06 1.23125,-0.093 1.82617,-0.1015 z m 211.37107,18.0879 c 8.3327,0.277 8.7191,0.3917 9.3223,2.791 1.3032,5.1839 -2.4304,10.1911 -8.9492,12.0019 -4.4758,1.2433 -5.7246,1.2082 -10.084,-0.2929 -6.78739,-2.3372 -7.96497,-10.1439 -1.9961,-13.2305 2.2082,-1.1419 5.3382,-1.4812 11.707,-1.2695 z m -116.14841,9.9394 c -3.42085,0.04 -6.85842,4.0914 -4.95117,8.2774 0.88395,1.94 1.92963,2.5957 4.13672,2.5957 5.4161,0 7.63881,-4.3654 4.50195,-8.8438 -1.01244,-1.4455 -2.34891,-2.0448 -3.6875,-2.0293 z m 478.31051,0.1797 c -0.6109,0.024 -1.2453,0.1696 -1.8847,0.4609 -2.7595,1.2573 -4.0741,5.4606 -2.5801,8.252 1.2995,2.4281 6.1719,2.664 8.4277,0.4082 3.4937,-3.4936 0.3138,-9.2883 -3.9629,-9.1211 z m -234.3886,0.7051 c -1.727,-0.044 -3.3507,0.3682 -4.1602,1.1777 -1.9116,1.9115 -1.3974,5.5564 1.0234,7.252 2.6247,1.8384 3.2807,1.8983 5.8497,0.5234 2.4558,-1.3143 2.7156,-7.4627 0.3535,-8.3691 -0.957,-0.3672 -2.0302,-0.5577 -3.0664,-0.584 z" />
  </g>
</svg>
