<?xml version="1.0" encoding="UTF-8" standalone="no"?>
<!-- Created with Inkscape (http://www.inkscape.org/) -->

<svg
   version="1.1"
   id="svg1"
   width="2048"
   height="2048"
   viewBox="0 0 2048 2048"
   sodipodi:docname="1.svg"
   inkscape:version="1.4.3 (0d15f75, 2025-12-25)"
   inkscape:export-filename="1.svg"
   inkscape:export-xdpi="96"
   inkscape:export-ydpi="96"
   xmlns:inkscape="http://www.inkscape.org/namespaces/inkscape"
   xmlns:sodipodi="http://sodipodi.sourceforge.net/DTD/sodipodi-0.dtd"
   xmlns="http://www.w3.org/2000/svg"
   xmlns:svg="http://www.w3.org/2000/svg">
  <sodipodi:namedview
     id="namedview1"
     pagecolor="#ffffff"
     bordercolor="#000000"
     borderopacity="0.25"
     inkscape:showpageshadow="2"
     inkscape:pageopacity="0.0"
     inkscape:pagecheckerboard="0"
     inkscape:deskcolor="#d1d1d1"
     inkscape:zoom="0.41552734"
     inkscape:cx="2365.6686"
     inkscape:cy="1024"
     inkscape:window-width="2400"
     inkscape:window-height="1261"
     inkscape:window-x="-9"
     inkscape:window-y="-9"
     inkscape:window-maximized="1"
     inkscape:current-layer="g1">
    <inkscape:page
       x="0"
       y="0"
       width="2048"
       height="2048"
       id="page2"
       margin="0"
       bleed="0" />
  </sodipodi:namedview>
  <defs
     id="defs1" />
  <g
     inkscape:groupmode="layer"
     inkscape:label="Image"
     id="g1">
    <path
       id="path1"
       style="fill:#6C47FF;stroke-width:2.78892"
       d="m 1037.7517,154.4239 c -34.0435,-0.60187 -68.30834,1.30586 -98.47357,5.80606 -26.75827,3.99189 -54.50089,10.00035 -64.76968,14.02548 -3.31388,1.2989 -14.15994,4.86096 -24.10126,7.91647 -46.48313,14.28676 -106.26116,43.90117 -146.10633,72.38417 -79.96895,57.16524 -138.12128,121.8271 -186.34559,207.20653 l -24.30695,43.0306 -30.88325,20.13957 c -30.48345,19.87315 -39.1619,26.2379 -70.42907,51.66404 -34.682,28.20309 -78.10201,76.52143 -95.78802,106.5997 -20.61612,35.06146 -39.57978,87.03017 -42.96622,117.7322 -0.99213,8.99479 -2.23979,18.68113 -2.76803,21.52793 -0.52822,2.84682 -1.05818,9.50865 -1.18125,14.80302 -0.20942,9.01147 -1.65016,10.45392 -22.57328,22.58309 -71.9718,41.72234 -124.67102,94.21497 -159.740716,159.12704 -15.139332,28.0221 -23.079805,49.4312 -29.831302,80.4017 -7.029493,32.2452 -7.80074,39.1875 -8.180687,73.9037 -0.691095,63.1458 22.67114,136.3783 59.121876,185.3305 5.694586,7.6473 10.355158,14.6896 10.355158,15.6507 0,0.9612 10.164241,13.0889 22.590911,26.9505 12.42664,13.8616 22.5968,26.7683 22.5968,28.6819 -3e-5,1.9139 -1.93206,5.8473 -4.29019,8.7396 -7.09099,8.6972 -13.78726,35.5732 -13.78726,55.3345 0,57.6871 53.41291,118.1315 134.96363,152.7354 59.98708,25.454 111.84948,34.3802 168.32689,28.9698 17.9321,-1.7181 36.16687,-3.7955 40.51554,-4.6196 7.01956,-1.33 10.86287,1.3571 34.26836,23.9412 61.35589,59.2022 123.83866,101.1097 199.65098,133.9084 59.26127,25.6378 148.07275,47.6096 214.71933,53.1231 68.40983,5.6593 157.79378,1 215.24248,-11.2182 157.2732,-33.4498 279.8244,-101.7098 378.4446,-210.7963 l 7.8869,-8.729 29.7606,9.0722 c 49.1317,14.9779 72.3521,18.4122 112.7727,16.6662 129.9298,-5.6123 248.0757,-79.833 264.7729,-166.3317 5.0092,-25.9497 -1.0777,-58.8614 -13.8283,-74.7975 -6.1775,-7.7208 -5.2384,-10.1373 9.7204,-25.0923 45.5273,-45.5159 80.4636,-109.0615 93.6723,-170.3758 7.9921,-37.1005 7.2744,-106.0923 -1.4986,-144.0161 -9.0878,-39.2842 -15.2604,-54.5126 -38.1296,-94.0787 -32.2565,-55.80767 -83.5555,-104.9492 -148.4335,-142.19843 l -27.8623,-15.99959 -0.06,-12.12714 c -0.085,-18.58433 -8.0625,-61.80607 -15.139,-82.00714 -3.4905,-9.96381 -7.6136,-21.747 -9.162,-26.18292 -4.7338,-13.55885 -36.5162,-65.90394 -52.4638,-86.40964 -19.6412,-25.25539 -87.5755,-83.70622 -129.521,-111.44148 l -33.1168,-21.90152 -19.6349,-33.60462 c -32.6011,-55.80722 -59.8884,-93.04248 -99.5726,-135.85729 -35.0913,-37.85938 -93.1399,-83.80742 -135.3867,-107.16517 -7.456,-4.12236 -17.0257,-9.5129 -21.2687,-11.9807 -26.6426,-15.49475 -109.4544,-43.94564 -150.6554,-51.75998 -29.2664,-5.55086 -63.0843,-8.66265 -97.1279,-9.26448 z m -3.8024,31.57499 c 5.0934,0.4361 19.2034,1.46354 31.3595,2.28203 83.6403,5.63159 168.4851,32.2152 231.3571,72.49021 71.5387,45.82671 107.1591,77.71627 154.6509,138.45743 65.568,83.86028 108.1579,186.84122 131.1498,317.11817 3.0452,17.2545 5.1186,81.53074 2.6328,81.61834 -13.6372,0.48027 -43.9482,3.49016 -67.4203,6.69974 -87.7706,12.00184 -163.3536,45.83269 -230.8689,103.33313 -39.1766,33.36539 -71.8047,73.72889 -90.8984,112.44106 l -12.1301,24.5875 -69.5358,0.6917 -69.53,0.6969 -0.3289,-12.3392 c -0.5175,-19.7422 -0.5461,-34.73827 -0.095,-47.92817 l 0.4233,-12.2936 h 59.6745 c 65.1335,0 70.6168,-1.0893 70.6168,-14.0204 0,-14.7733 -4.2068,-15.7369 -68.4076,-15.7472 -32.1155,-0.011 -59.3716,-0.8508 -60.5675,-1.8781 -1.1957,-1.0274 -2.0999,-19.65753 -2.0097,-41.39992 0.1845,-44.35206 -2.0777,-51.17938 -16.9846,-51.17938 -16.3882,0 -18.232,5.00005 -19.1466,51.8912 l -0.8349,42.5712 -59.7388,0.5049 c -64.39516,0.5414 -68.28979,1.3322 -68.28979,13.8992 0,13.8767 6.89179,15.3585 71.46348,15.3585 h 58.06981 v 36.23497 36.2299 H 939.81884 871.0706 l -13.18222,-25.2336 C 832.39373,972.29113 803.80413,937.78423 756.22368,898.38 691.00356,844.36753 602.15407,808.67933 516.01615,801.89809 c -11.5983,-0.91307 -27.72627,-2.32606 -35.84344,-3.14036 l -14.76286,-1.47926 1.84537,-33.99337 c 1.65129,-30.43149 12.52134,-111.20685 15.52681,-115.38454 0.64994,-0.90345 6.60535,-19.1342 13.23484,-40.5113 29.47792,-95.05309 80.74049,-185.61729 141.1402,-249.35866 83.7544,-88.388 185.01251,-144.05296 296.78477,-163.14588 33.24395,-5.67874 84.39396,-10.22276 100.00756,-8.88583 z m 303.0906,281.79697 c -14.7231,-0.0636 -29.6233,1.88899 -39.4868,5.88181 -16.3468,6.61722 -37.1457,25.19678 -45.1347,40.31443 -6.5629,12.41835 -7.8288,34.31924 -2.0982,36.30568 7.1426,2.47591 19.1958,1.70135 23.7839,-1.52473 2.5304,-1.77925 6.3284,-8.47015 8.4454,-14.86861 4.9062,-14.82986 24.3648,-31.92727 41.2969,-36.2855 17.5333,-4.51281 31.2754,-1.50245 46.8159,10.24901 11.7825,8.90974 16.7521,16.02021 26.7808,38.32012 2.0952,4.65838 4.9669,5.82126 14.3633,5.82126 14.393,0 18.1925,-3.61681 16.8492,-16.05005 -2.5314,-23.4266 -24.7405,-49.29405 -53.1803,-61.94333 -9.1623,-4.07515 -23.7117,-6.15637 -38.4354,-6.22009 z m -622.19576,0.106 c -24.01934,-9.3e-4 -28.68826,0.79423 -40.92109,6.97233 -16.12452,8.14363 -33.22642,23.64391 -41.4323,37.55274 -7.94355,13.46408 -11.08771,30.96877 -6.42948,35.79072 3.82695,3.96122 20.01658,5.09303 25.93503,1.81251 1.88655,-1.04575 4.81689,-6.23449 6.51158,-11.53139 5.91421,-18.48559 24.6632,-36.15936 43.79481,-41.28377 26.12359,-6.99725 55.30926,8.74556 67.10873,36.19462 7.07699,16.4635 9.42529,18.60528 20.3575,18.55926 15.60943,-0.0658 18.07692,-2.87988 16.1616,-18.4684 -2.09206,-17.02855 -13.69632,-35.38885 -29.89002,-47.29683 -20.71949,-15.23587 -30.97277,-18.3006 -61.19636,-18.30179 z m -245.18543,91.28677 c 0.0933,-10e-4 0.16124,0.0156 0.20584,0.0556 1.13923,1.00188 -3.98321,22.78628 -11.38363,48.40756 -15.73945,54.49217 -27.1595,116.88822 -29.29058,160.01566 -0.832,16.83757 -1.97369,30.99328 -2.53298,31.45886 -0.5593,0.4656 -8.47087,1.623 -17.58374,2.56981 -29.04414,3.01772 -61.042,9.23909 -85.85603,16.6963 -13.2551,3.9835 -26.55,8.13589 -29.5433,9.2241 -4.9943,1.8157 -5.39449,0.40415 -4.8132,-17.12038 0.73719,-22.2241 10.53054,-58.49238 22.27353,-82.50192 22.03183,-45.04605 67.44814,-98.34893 120.14787,-141.01208 19.2965,-15.62147 36.08355,-27.75826 38.37636,-27.79347 z m 1116.05779,1.49445 c 8.0696,-0.261 73.2492,55.3295 99.6549,85.1626 17.6776,19.97165 52.2226,71.66354 52.2226,78.14484 0,0.70059 3.2738,7.42246 7.2753,14.93424 6.9715,13.08721 19.9213,65.43525 19.8641,80.29561 -0.033,8.57613 -4.2167,8.81407 -25.6351,1.44393 -23.2714,-8.00799 -67.1081,-17.43133 -89.717,-19.28627 -11.2362,-0.92184 -20.9813,-2.44421 -21.6566,-3.38269 -0.6751,-0.9385 -2.0217,-12.12397 -2.9911,-24.85508 -3.9459,-51.81045 -10.5736,-92.71529 -22.9676,-141.7391 -3.3017,-13.06159 -6.673,-26.65841 -7.4926,-30.21689 -1.2459,-5.40826 -5.0078,-16.59076 -12.0067,-35.68467 -0.6717,-1.83314 0.7267,-3.97573 3.1088,-4.76101 0.099,-0.0326 0.2137,-0.0514 0.341,-0.0557 z m -746.0347,81.90607 c -9.34618,0 -17.8952,7.1837 -17.8952,15.03526 0,19.15938 83.09007,59.68108 146.10614,71.25326 42.43516,7.79272 111.98896,3.91374 153.64036,-8.56776 39.0966,-11.71603 95.2355,-41.76033 103.8396,-55.5718 4.5834,-7.35682 3.067,-16.9486 -3.2087,-20.32632 -7.602,-4.0913 -17.6448,-0.44743 -41.5617,15.07562 -30.0725,19.51849 -56.6339,30.71069 -86.1792,36.30566 -88.2139,16.70496 -170.25949,1.49644 -233.8901,-43.35375 -7.68582,-5.41744 -17.06944,-9.85017 -20.8512,-9.85017 z M 473.77845,830.25196 c 55.08502,1.14099 107.99726,13.09909 162.73793,36.2754 86.43772,36.59625 145.90451,89.30177 186.06352,164.90794 24.75377,46.6032 33.15079,80.7715 33.5572,136.5187 0.48981,67.175 -8.383,100.5645 -42.00236,158.0717 -19.32239,33.052 -37.15043,54.3482 -68.80708,82.1786 -54.55636,47.9637 -125.39996,82.8523 -200.69112,98.8348 -14.08354,2.9895 -39.84392,6.0554 -57.24125,6.8159 l -31.62962,1.3835 -24.10129,-31.5902 c -28.8252,-37.7853 -53.37585,-58.5795 -89.00016,-75.3731 -32.09598,-15.1302 -50.49151,-18.924 -90.38124,-18.6451 -28.57208,0.1991 -33.8827,1.0219 -52.72194,8.1538 l -20.94535,7.9316 -9.03871,-5.8918 c -23.50963,-15.3275 -66.31391,-77.6387 -82.576697,-120.2062 -15.935375,-41.7104 -19.632425,-62.1266 -19.746458,-109.0735 -0.08454,-34.794 1.130308,-47.4953 6.564514,-68.5827 18.153067,-70.4422 52.558261,-124.19197 110.727151,-172.98573 53.05389,-44.50305 118.23275,-75.60901 186.86866,-89.18146 35.47892,-7.01577 69.31322,-10.22675 102.3643,-9.54215 z m 1103.40445,0.43924 c 73.8485,-2.78675 144.2687,12.03709 210.118,44.33321 42.1192,20.65767 68.2854,38.9985 99.9607,70.06692 68.5997,67.28547 98.276,135.72837 98.3092,226.74517 0.028,74.4583 -20.119,130.6334 -69.6592,194.2258 -9.9278,12.7435 -22.3698,26.4687 -27.6511,30.5048 l -9.603,7.3408 -14.6039,-5.3972 c -8.0324,-2.9683 -17.0692,-5.4115 -20.0756,-5.4374 -3.0068,-0.026 -7.4025,-1.0941 -9.7733,-2.3829 -3.4172,-1.8578 -0.762,-5.6406 12.8176,-18.2412 37.1922,-34.511 63.7099,-75.8097 77.0111,-119.9335 12.1116,-40.1775 13.3224,-49.9549 11.4896,-93.0892 -1.9387,-45.6303 -7.8222,-70.0058 -25.9526,-107.5185 -11.1046,-22.9767 -19.7387,-35.1695 -45.7519,-64.60907 -63.9905,-72.41953 -163.2047,-114.38513 -270.4031,-114.37478 -84.6843,0.0109 -159.2233,22.9756 -221.8423,68.35018 -22.7639,16.495 -21.1677,15.119 -41.2738,35.5787 -34.7538,35.36577 -60.191,77.33137 -73.485,121.22587 -7.399,24.4302 -8.2477,31.7481 -8.3924,72.4651 -0.1344,38.6398 0.8344,48.6681 6.5942,68.3097 31.4975,107.4151 116.9487,186.8173 238.4621,221.5803 26.9717,7.7161 74.5827,12.7583 107.8826,11.4252 l 27.9448,-1.1155 -4.572,7.1187 c -2.5148,3.9172 -9.0818,13.5276 -14.5929,21.3561 l -10.0197,14.2377 -23.9018,0.4594 c -87.4039,1.6917 -197.4356,-42.3623 -271.6256,-108.7503 -70.9098,-63.4531 -110.5,-150.5722 -109.0641,-239.9983 0.9556,-59.5031 24.6048,-127.1128 62.1958,-177.81247 55.0441,-74.23942 145.6568,-129.08847 244.5094,-148.00469 25.3356,-4.84819 50.3324,-7.72971 74.9482,-8.65864 z m 1.0112,71.23809 c 10.1246,-0.23597 20.5821,-0.11864 31.3651,0.3534 45.2589,1.9812 75.0649,8.45315 115.7344,25.14287 105.2321,43.18467 170.8334,126.49084 179.8571,228.39104 2.1402,24.167 -4.518,69.6826 -13.8812,94.8614 -14.476,38.9275 -51.0246,91.2235 -78.7918,112.7438 -20.5572,15.9326 -39.796,27.1017 -46.6862,27.1017 -18.3841,0 -59.9033,16.0803 -87.6312,33.938 -8.6648,5.5804 -19.5111,11.4028 -24.1009,12.9401 -22.6508,7.5861 -100.4806,6.6633 -137.8847,-1.6357 -42.5346,-9.4376 -102.6694,-37.6165 -135.1984,-63.3571 -35.1697,-27.83 -72.8398,-79.1786 -86.1322,-117.4092 -12.1107,-34.832 -13.5788,-44.2874 -13.3291,-85.7482 0.2196,-36.4996 1.2144,-44.454 8.3807,-67.1032 28.5344,-90.1825 102.973,-158.10377 206.6972,-188.60169 23.8832,-7.02232 51.2264,-10.90943 81.6012,-11.61722 z m 25.1003,45.46424 c -7.0805,0.09 -12.1674,0.6866 -13.3818,1.9437 -1.6013,1.6575 -3.6713,9.3062 -4.6015,16.9993 -2.6625,22.0104 -2.5144,21.8591 -24.3425,25.3145 -39.3597,6.2303 -77.9156,29.32967 -93.9073,56.25837 -16.1464,27.1894 -18.2629,69.9627 -4.6488,93.9979 10.54,18.6076 39.5316,43.231 63.8293,54.2086 l 19.1059,8.6283 -1.7041,14.6061 c -1.8709,16.0335 -4.8949,28.8336 -6.8114,28.8336 -3.0741,0 -43.1206,-18.6275 -55.3017,-25.7234 -18.7558,-10.9259 -24.7459,-10.3597 -32.5702,3.0797 -9.0144,15.4823 -33.704,66.085 -33.704,69.0773 0,5.1436 70.2305,40.5019 90.3752,45.4994 13.6305,3.3814 14.1199,4.7146 10.2495,27.657 -1.9909,11.802 -3.3082,21.7461 -2.927,22.0986 0.381,0.3527 15.4951,2.9019 33.5869,5.6698 18.0915,2.7677 37.6429,4.8123 43.4423,4.5388 l 10.543,-0.4999 3.6145,-20.4474 c 1.9889,-11.2457 4.6992,-21.2677 6.024,-22.2751 1.3245,-1.0073 11.2217,-3.3336 21.9914,-5.1651 10.7697,-1.8313 29.4492,-7.398 41.5086,-12.3743 77.103,-31.8162 96.862,-121.4142 37.9415,-172.0318 -7.287,-6.2604 -24.7999,-16.9521 -38.917,-23.7596 -18.8442,-9.0869 -25.3034,-13.5052 -24.3071,-16.6203 0.7464,-2.334 2.2403,-10.9223 3.3203,-19.0845 1.0802,-8.1621 3.0018,-15.3903 4.2727,-16.0653 1.2713,-0.6749 11.6834,3.5238 23.1374,9.3304 11.4538,5.8063 25.2887,12.2002 30.7422,14.2071 l 9.9143,3.6452 7.7812,-14.9595 c 11.6376,-22.3799 25.1062,-57.6737 25.1062,-65.7854 0,-5.5564 -3.0008,-8.9273 -13.4289,-15.0908 -13.8632,-8.1941 -51.0036,-24.26427 -61.5666,-26.63727 -5.4437,-1.2231 -5.8551,-2.9932 -4.5252,-19.3318 1.1218,-13.7814 0.4335,-18.72 -2.9385,-21.1239 -6.4689,-4.6123 -45.6624,-8.8891 -66.9028,-8.6183 z m 16.7495,22.1236 c 3.4686,0.094 7.919,0.4954 13.6167,1.1159 l 18.0772,1.9691 v 18.8519 18.85207 l 21.1278,6.1394 c 25.4767,7.4078 55.6897,21.879 55.6897,26.6727 0,6.28 -16.0846,49.7857 -18.4066,49.7857 -1.2481,0 -14.8004,-5.2421 -30.1194,-11.6473 -15.3191,-6.4054 -31.6179,-11.6475 -36.2194,-11.6475 -9.1648,0 -8.2661,-2.1696 -14.4808,34.9424 -6.3853,38.1292 -7.6462,34.8198 17.7718,46.5547 29.6534,13.6905 57.5717,36.1823 66.6857,53.7239 10.5969,20.3959 10.225,52.3258 -0.8348,71.8238 -8.4719,14.9359 -29.6989,34.2377 -47.8322,43.5001 -13.8917,7.096 -42.4654,13.4348 -60.5736,13.4348 -14.1785,0 -14.3051,0.076 -16.1439,9.7037 -1.019,5.3378 -3.2135,15.817 -4.8721,23.29 -3.3783,15.2234 -4.7914,15.7097 -29.7018,10.1481 l -13.5521,-3.0294 0.9402,-22.3306 0.9462,-22.3358 -24.4773,-6.7805 c -30.9748,-8.583 -52.9654,-17.5213 -65.7863,-26.7432 l -10.0494,-7.23 12.2943,-24.3502 c 6.7619,-13.3931 12.9423,-24.9014 13.7286,-25.5771 0.7865,-0.6754 9.9408,3.4871 20.3459,9.2545 32.4821,18.0043 68.5209,28.8303 68.6953,20.6344 0.039,-1.7793 2.7157,-18.377 5.9533,-36.8814 3.2376,-18.5041 5.9201,-34.9565 5.9594,-36.5631 0.039,-1.6066 -4.1234,-4.4128 -9.2446,-6.2352 -14.5194,-5.1664 -45.2279,-22.7315 -57.9699,-33.1552 -19.7962,-16.1949 -24.4482,-26.5799 -24.4482,-54.7388 0,-19.6182 1.2936,-27.0339 6.4293,-36.6894 15.5447,-29.2249 49.5887,-48.9152 94.2426,-54.5064 24.2147,-3.0322 24.2596,-3.0474 27.2219,-12.20787 1.6319,-5.0461 2.9796,-13.0001 2.9796,-17.6708 0.028,-7.8463 1.5997,-10.3573 12.0069,-10.0774 z M 350.09266,1008.2563 c -35.2513,-0.8037 -73.37204,12.3087 -100.75405,35.3262 -19.51934,16.4082 -30.10036,32.697 -37.19507,57.2481 -6.15048,21.2833 -6.16299,31.5202 -0.0648,54.9658 13.1567,50.5824 58.27943,101.555 151.88326,171.5672 53.26851,39.8428 68.27726,50.5176 82.41804,58.621 6.82005,3.9084 13.54389,7.1141 14.94499,7.1141 3.98211,0.026 18.92416,-9.4347 52.89234,-33.4632 179.52447,-126.9931 230.09597,-207.3245 181.76172,-288.729 -40.97535,-69.0107 -153.75084,-82.17157 -218.59235,-25.5064 l -15.47985,13.5308 -18.13618,-14.9342 c -21.44299,-17.6641 -50.85275,-30.5572 -78.78605,-34.5337 -4.87925,-0.6946 -9.85624,-1.0919 -14.89215,-1.2067 z m 1.82183,30.424 c 10.93952,0.3553 21.53856,1.9838 30.65406,4.9375 21.39012,6.9317 43.99535,24.1141 58.24621,44.2676 5.97791,8.454 12.12692,15.5139 13.66383,15.6916 1.5369,0.1779 4.48756,0.5465 6.55868,0.8181 4.86918,0.6381 17.32515,-8.8094 17.32515,-13.142 0,-6.4905 36.53538,-36.9531 52.21659,-43.5356 30.1293,-12.6476 72.45562,-10.6363 100.91256,4.7964 37.14988,20.1469 53.52381,61.557 40.89767,103.424 -13.68453,45.3753 -50.9495,83.5647 -165.27688,169.3811 -23.12377,17.3571 -44.14008,31.5231 -46.69805,31.474 -2.55797,-0.048 -15.53847,-8.4951 -28.84983,-18.7664 -13.31133,-10.2711 -30.85508,-23.3316 -38.98166,-29.0254 -24.99928,-17.5149 -91.97704,-74.2568 -105.39679,-89.2875 -34.72992,-38.8987 -46.08003,-65.3423 -43.13077,-100.4955 2.51332,-29.957 25.02414,-59.0925 55.56633,-71.93 14.877,-6.2527 34.0604,-9.2003 52.2929,-8.6079 z m 1232.89101,28.3437 c -13.1177,0 -22.4914,9.9555 -24.2601,25.7688 -1.2518,11.192 -0.3321,14.2623 6.6118,22.0835 12.8084,14.4259 14.2052,13.1574 19.858,-18.0898 1.8028,-9.9639 4.0319,-20.7386 4.9544,-23.9413 1.453,-5.043 0.4909,-5.8212 -7.1641,-5.8212 z m -702.76877,7.8408 53.47418,1.0401 c 29.41002,0.5712 57.88039,1.1329 63.26513,1.252 l 9.78496,0.2169 v 36.2351 36.23 h -57.05898 c -31.38323,0 -57.66049,-0.8712 -58.39898,-1.9387 -0.73851,-1.0675 -2.27064,-10.0951 -3.40283,-20.0587 -1.13199,-9.9639 -3.28917,-22.7764 -4.7896,-28.47 -1.50059,-5.6937 -2.75675,-13.5354 -2.7975,-17.4284 z m 289.38007,2.605 c 2.3624,1.2546 2.5356,3.3745 0.5462,6.6949 -3.3088,5.5228 -6.3783,21.0155 -8.6505,43.6768 -0.8564,8.5404 -2.0905,16.9819 -2.7446,18.7611 -0.8967,2.4389 -15.299,3.2363 -58.5225,3.2363 h -57.3295 l -0.2167,-14.8786 c -0.295,-20.5506 0.5027,-56.1049 1.2692,-56.7634 1.8388,-1.5797 122.7258,-2.2791 125.649,-0.7271 z m -277.05613,103.4241 h 57.10038 57.09995 v 36.2351 c 0,35.7818 -0.081,36.2348 -6.7758,36.457 -25.40137,0.8438 -56.56454,0.9626 -84.74547,0.3283 l -32.78144,-0.7374 1.98633,-12.2027 c 1.09272,-6.7112 2.70309,-19.1875 3.57312,-27.7278 0.8702,-8.5405 2.24703,-19.3152 3.06187,-23.9413 z m 150.35523,0 h 57.2354 c 43.6737,0 57.2848,0.7679 57.4411,3.2361 0.2438,3.8872 1.6159,13.8687 6.0589,44.1818 1.8414,12.5579 2.7464,23.3492 2.0162,23.9767 -1.7497,1.503 -66.3544,2.5695 -97.8979,1.6156 l -24.8537,-0.7522 -0.3351,-18.014 c -0.1825,-9.9062 -0.335,-20.3371 -0.335,-23.184 0,-2.8469 0.1515,-11.0029 0.335,-18.12 z m 569.0451,29.9997 c -3.3212,-0.021 -4.2001,5.7707 -7.2051,29.5252 -0.9906,7.8288 -2.5887,18.6036 -3.5495,23.9412 -1.4472,8.0412 -0.8581,9.7038 3.4437,9.7038 8.0995,0 21.8404,-7.9819 25.4472,-14.7827 7.4997,-14.141 -0.8053,-40.89 -14.6745,-47.2666 -1.4131,-0.6495 -2.5319,-1.1152 -3.4618,-1.1209 z m -740.02829,73.5201 h 67.5024 67.49659 l -0.8348,35.5889 -0.8403,35.5839 -79.8322,0.631 c -43.90754,0.347 -81.63761,-0.3643 -83.84609,-1.5805 -3.18015,-1.7504 -1.87361,-5.9172 6.27656,-20.0385 5.66016,-9.8067 13.39193,-25.1122 17.18418,-34.0085 z m 170.98319,0 h 68.9483 68.9538 l 1.8573,8.4112 c 1.0196,4.6263 7.9481,20.0218 15.3974,34.2106 7.4494,14.1887 13.5405,26.7056 13.5405,27.8187 0,2.4524 -163.8442,2.7503 -166.6931,0.303 -1.1046,-0.9489 -2.0042,-17.2564 -2.0042,-36.2352 z m 489.3306,63.2966 c 0.2076,-0.018 0.4455,0.2291 0.6936,0.7573 0.836,1.7792 0.836,4.6933 0,6.4724 -0.8355,1.7792 -1.5221,0.322 -1.5221,-3.2363 0,-2.5019 0.3371,-3.9641 0.8285,-3.9934 z m -712.81833,38.4766 c 0.60511,0 1.21132,0.093 1.83359,0.2377 3.4399,0.7937 46.58977,1.4485 95.88204,1.4743 l 89.6172,0.041 v 36.2299 36.2302 h -61.38444 c -67.85176,0 -69.35643,0.3572 -67.60235,15.9489 1.54083,13.695 8.51509,15.2176 68.73658,14.9745 28.9957,-0.1189 54.61211,-0.1363 56.92381,-0.041 6.5958,0.2732 2.6013,71.163 -5.25976,93.3414 -9.4231,26.585 -20.42952,48.5027 -31.66473,63.0442 -39.25655,50.808 -91.17329,81.3532 -159.15905,93.6394 -22.12156,3.9977 -71.18029,6.5544 -91.29796,4.761 -57.55682,-5.131 -116.08774,-23.7839 -155.94435,-49.7002 -19.61755,-12.756 -44.38831,-33.618 -44.38831,-37.3863 0,-1.1103 3.34138,-3.1096 7.42256,-4.4427 15.90184,-5.1938 47.2836,-24.3223 60.27964,-36.7399 26.33223,-25.1605 40.44125,-63.0169 27.59798,-74.0503 -2.57503,-2.2121 -12.01273,-4.4955 -21.33917,-5.1598 -18.542,-1.3209 -21.70111,-4.3724 -7.33435,-7.0834 13.93117,-2.6283 78.71222,-29.818 108.72898,-45.6357 37.27367,-19.6414 86.00288,-57.3888 110.79782,-85.8242 9.14933,-10.4929 13.31906,-13.9325 17.55427,-13.8589 z m 414.78183,0.4544 10.5432,10.2488 c 41.5301,40.3757 78.752,69.3333 114.3121,88.9241 19.7329,10.8718 87.2528,39.8071 104.0979,44.611 l 12.0478,3.4331 -12.7766,1.9539 c -15.4644,2.3619 -27.5535,9.4429 -28.1152,16.4639 -1.7603,22.0181 9.2346,43.0928 33.2517,63.7258 9.9996,8.5905 18.1832,16.6227 18.1832,17.8474 0,3.92 -30.355,36.8442 -52.4279,56.864 -68.0479,61.718 -150.3846,106.9896 -245.0738,134.7516 -46.343,13.5871 -61.2271,17.0923 -92.9907,21.8916 -6.4234,0.9708 -15.0694,2.3072 -19.2114,2.9738 -14.9987,2.4136 -143.67213,3.0223 -166.5818,0.7874 -58.81371,-5.7374 -125.33188,-22.5437 -184.69407,-46.6658 -32.94935,-13.3886 -65.95512,-30.4707 -63.29449,-32.7564 0.91026,-0.782 14.63351,0.05 30.49531,1.853 27.20616,3.0934 94.39456,2.4345 112.94873,-1.1108 4.14224,-0.7915 14.67354,-2.5785 23.40189,-3.9681 36.82203,-5.8625 90.48586,-31.3779 125.31964,-59.5905 23.0158,-18.6412 37.99263,-36.2911 53.83819,-63.4382 23.8649,-40.8854 31.8936,-70.2269 33.4516,-122.2355 0.479,-15.9891 1.5208,-29.63 2.3158,-30.3126 0.7945,-0.6831 26.5922,-1.3798 57.3233,-1.5452 63.6391,-0.3452 69.8386,-1.6797 71.3635,-15.3631 1.6438,-14.7469 -2.078,-15.5856 -69.3474,-15.5856 h -59.6746 v -36.1593 -36.1594 l 95.6469,-0.722 z m -982.41648,31.6455 c 26.20274,-0.1623 54.94564,5.7625 76.74089,16.9792 35.72939,18.3877 53.69451,36.8174 98.57955,101.1316 29.17456,41.8032 46.21125,59.7376 59.45691,62.5849 12.11448,2.6038 22.90125,-2.4037 25.04736,-11.6224 1.62163,-6.9652 3.35338,-7.9241 18.76505,-10.4209 9.33549,-1.5123 24.08872,-4.3224 32.78735,-6.2452 17.47549,-3.8619 19.45687,-2.2486 10.83719,8.8255 -20.52724,26.3715 -62.268,49.8025 -108.10024,60.6811 -21.18681,5.0287 -92.75591,7.5015 -112.65479,3.8926 -36.26578,-6.5772 -74.30448,-20.6338 -108.75253,-40.1834 -52.54631,-29.8208 -84.13424,-73.4995 -84.12821,-116.3337 0.003,-30.3183 14.47165,-48.6771 49.04881,-62.2511 11.8467,-4.6508 26.65105,-6.9399 42.37266,-7.0382 z m 1536.18178,1.2574 c 39.3725,-1.5042 58.6636,2.8273 78.1454,17.5593 29.7178,22.4727 33.0211,61.1135 8.8505,103.4747 -28.134,49.3079 -107.4221,94.0651 -183.3426,103.4947 -19.902,2.4717 -60.8462,2.9946 -76.3353,0.9744 -45.2431,-5.9006 -92.1081,-24.0219 -120.4828,-46.59 -15.2235,-12.108 -27.2267,-27.5518 -23.7427,-30.545 1.0446,-0.8971 21.0498,3.1696 57.8641,11.7635 7.5596,1.7645 11.0135,3.8766 10.014,6.1141 -2.9529,6.6113 6.7698,14.3637 18.0131,14.3637 17.3352,0 39.2776,-21.5413 76.0887,-74.7015 39.481,-57.0164 61.8595,-78.3392 98.691,-94.018 23.4942,-10.0013 27.1948,-10.7802 56.2366,-11.8899 z M 553.14038,1539.3056 c 0,0 0,0.026 0.0184,0.026 v 0 c 10e-4,0 0,0 0,0.027 7.3e-4,0 0,0 0,0.027 1.8e-4,0 0,0 0,0.027 -0.0904,0.6777 -8.43538,3.4188 -19.10598,6.2506 -17.75776,4.7116 -56.38476,7.6653 -52.09892,3.9833 2.06949,-1.7777 69.70264,-11.5649 71.17537,-10.2997 z m 953.08482,1.4393 c 5.4348,0.053 16.6543,1.0277 33.71,2.9081 30.2863,3.339 32.3107,3.9207 25.8585,7.4265 -6.2799,3.4117 -13.4042,2.8931 -38.8114,-2.8222 -22.8085,-5.1309 -29.8151,-7.6021 -20.7571,-7.5124 z"
       sodipodi:nodetypes="csssscccssssssssssssssssssssssccsssssssscccssscccsscscccssssssscccccccsssssscccssccccccsscccssssccsssssssssssssssssssssssssscssssssssssssssssssssssssssssssssssssssssssscccsccccssssssssscsccssssssssssssccsccccccsssssssssssssssssssssssssssccssssssssscccssssssssscccssssssssccccsssssssssssscccccccssscsssssssscssssssscsscccssssssssssssssssssssssssssccscccsssscccssssccscccccssccsssccscsssccsscssssssscccccsssccccccsssscsssssscccccsscssssssssssssssssccscccssssssssssssssssscssccccccsssssssssscscssssssssssssscscsscssccsssss" />
  </g>
</svg>
